<mxfile host="app.diagrams.net" modified="2020-11-05T06:00:30.578Z" agent="5.0 (Windows NT 10.0; Win64; x64) AppleWebKit/537.36 (KHTML, like Gecko) Chrome/86.0.4240.111 Safari/537.36" etag="RlnZq0kmMf8XPF2BiSfl" version="13.8.2" type="github">
  <diagram name="Page-1" id="ad52d381-51e7-2e0d-a935-2d0ddd2fd229">
    <mxGraphModel dx="3470" dy="2172" grid="1" gridSize="10" guides="1" tooltips="1" connect="1" arrows="1" fold="1" page="1" pageScale="1" pageWidth="1100" pageHeight="850" background="#ffffff" math="0" shadow="0">
      <root>
        <mxCell id="0" />
        <mxCell id="1" parent="0" />
        <mxCell id="MTes7KhfShOdjZcSvgRo-85" value="" style="endArrow=classic;html=1;" edge="1" parent="1">
          <mxGeometry width="50" height="50" relative="1" as="geometry">
            <mxPoint x="454.88" y="-400" as="sourcePoint" />
            <mxPoint x="564.88" y="-400" as="targetPoint" />
          </mxGeometry>
        </mxCell>
        <mxCell id="MTes7KhfShOdjZcSvgRo-87" value="科研" style="edgeLabel;html=1;align=center;verticalAlign=middle;resizable=0;points=[];" vertex="1" connectable="0" parent="MTes7KhfShOdjZcSvgRo-85">
          <mxGeometry x="0.2545" y="-1" relative="1" as="geometry">
            <mxPoint as="offset" />
          </mxGeometry>
        </mxCell>
        <mxCell id="MTes7KhfShOdjZcSvgRo-86" value="" style="endArrow=classic;html=1;strokeColor=#FF3333;" edge="1" parent="1">
          <mxGeometry width="50" height="50" relative="1" as="geometry">
            <mxPoint x="454.88" y="-375.5" as="sourcePoint" />
            <mxPoint x="564.88" y="-375.5" as="targetPoint" />
          </mxGeometry>
        </mxCell>
        <mxCell id="MTes7KhfShOdjZcSvgRo-88" value="&lt;font color=&quot;#ff3333&quot;&gt;产业化&lt;/font&gt;" style="edgeLabel;html=1;align=center;verticalAlign=middle;resizable=0;points=[];" vertex="1" connectable="0" parent="MTes7KhfShOdjZcSvgRo-86">
          <mxGeometry x="0.2545" y="2" relative="1" as="geometry">
            <mxPoint y="1" as="offset" />
          </mxGeometry>
        </mxCell>
        <mxCell id="MTes7KhfShOdjZcSvgRo-9" value="" style="group" vertex="1" connectable="0" parent="1">
          <mxGeometry x="153.6749116607774" y="-118.79999999999995" width="234.06360424028267" height="86" as="geometry" />
        </mxCell>
        <mxCell id="MTes7KhfShOdjZcSvgRo-6" value="" style="whiteSpace=wrap;html=1;rounded=1;shadow=1;comic=0;labelBackgroundColor=none;strokeWidth=2;fontFamily=Verdana;fontSize=12;align=center;arcSize=50;" vertex="1" parent="MTes7KhfShOdjZcSvgRo-9">
          <mxGeometry width="234.06360424028267" height="86" as="geometry" />
        </mxCell>
        <mxCell id="MTes7KhfShOdjZcSvgRo-7" value="地球重点实验室" style="text;html=1;strokeColor=none;fillColor=none;align=center;verticalAlign=middle;whiteSpace=wrap;rounded=0;" vertex="1" parent="MTes7KhfShOdjZcSvgRo-9">
          <mxGeometry x="29.257950530035334" y="8.600000000000001" width="175.547703180212" height="34.400000000000006" as="geometry" />
        </mxCell>
        <mxCell id="MTes7KhfShOdjZcSvgRo-8" value="&lt;font color=&quot;#ff3333&quot;&gt;苍穹数码&lt;/font&gt;" style="text;html=1;strokeColor=none;fillColor=none;align=center;verticalAlign=middle;whiteSpace=wrap;rounded=0;" vertex="1" parent="MTes7KhfShOdjZcSvgRo-9">
          <mxGeometry x="39.01060070671378" y="43" width="156.04240282685512" height="34.400000000000006" as="geometry" />
        </mxCell>
        <mxCell id="MTes7KhfShOdjZcSvgRo-10" value="" style="group" vertex="1" connectable="0" parent="1">
          <mxGeometry x="-99.8939929328622" y="87.60000000000002" width="234.06360424028267" height="137.60000000000002" as="geometry" />
        </mxCell>
        <mxCell id="2c924340bb9dbf6c-2" value="" style="ellipse;whiteSpace=wrap;html=1;rounded=1;shadow=1;comic=0;labelBackgroundColor=none;strokeWidth=2;fontFamily=Verdana;fontSize=12;align=center;" parent="MTes7KhfShOdjZcSvgRo-10" vertex="1">
          <mxGeometry width="234.06360424028267" height="137.60000000000002" as="geometry" />
        </mxCell>
        <mxCell id="MTes7KhfShOdjZcSvgRo-1" value="联合创新中心" style="text;html=1;strokeColor=none;fillColor=none;align=center;verticalAlign=middle;whiteSpace=wrap;rounded=0;" vertex="1" parent="MTes7KhfShOdjZcSvgRo-10">
          <mxGeometry x="39.01060070671378" y="34.400000000000006" width="156.04240282685512" height="34.400000000000006" as="geometry" />
        </mxCell>
        <mxCell id="MTes7KhfShOdjZcSvgRo-2" value="&lt;font color=&quot;#ff3333&quot;&gt;十象建筑科技&lt;/font&gt;" style="text;html=1;strokeColor=none;fillColor=none;align=center;verticalAlign=middle;whiteSpace=wrap;rounded=0;" vertex="1" parent="MTes7KhfShOdjZcSvgRo-10">
          <mxGeometry x="39.01060070671378" y="68.80000000000001" width="156.04240282685512" height="34.400000000000006" as="geometry" />
        </mxCell>
        <mxCell id="MTes7KhfShOdjZcSvgRo-4" value="" style="endArrow=classic;html=1;exitX=0.781;exitY=0.078;exitDx=0;exitDy=0;exitPerimeter=0;rounded=0;entryX=0.018;entryY=0.732;entryDx=0;entryDy=0;entryPerimeter=0;" edge="1" parent="1" source="2c924340bb9dbf6c-2" target="MTes7KhfShOdjZcSvgRo-6">
          <mxGeometry x="-490" y="-480" width="50" height="50" as="geometry">
            <mxPoint x="75.65371024734986" y="79" as="sourcePoint" />
            <mxPoint x="173.18021201413433" y="-7" as="targetPoint" />
          </mxGeometry>
        </mxCell>
        <mxCell id="MTes7KhfShOdjZcSvgRo-5" value="" style="endArrow=classic;html=1;rounded=0;fillColor=#e51400;strokeColor=#FF3333;entryX=0.04;entryY=0.818;entryDx=0;entryDy=0;entryPerimeter=0;exitX=0.808;exitY=0.106;exitDx=0;exitDy=0;exitPerimeter=0;" edge="1" parent="1" source="2c924340bb9dbf6c-2" target="MTes7KhfShOdjZcSvgRo-6">
          <mxGeometry x="-490" y="-480" width="50" height="50" as="geometry">
            <mxPoint x="87.35689045936397" y="104.80000000000007" as="sourcePoint" />
            <mxPoint x="192.68551236749113" y="4.0079999999999245" as="targetPoint" />
          </mxGeometry>
        </mxCell>
        <mxCell id="MTes7KhfShOdjZcSvgRo-11" value="" style="group" vertex="1" connectable="0" parent="1">
          <mxGeometry x="368.23321554770325" y="122" width="234.06360424028267" height="86" as="geometry" />
        </mxCell>
        <mxCell id="MTes7KhfShOdjZcSvgRo-12" value="" style="whiteSpace=wrap;html=1;rounded=1;shadow=1;comic=0;labelBackgroundColor=none;strokeWidth=2;fontFamily=Verdana;fontSize=12;align=center;arcSize=50;" vertex="1" parent="MTes7KhfShOdjZcSvgRo-11">
          <mxGeometry width="234.06360424028267" height="86" as="geometry" />
        </mxCell>
        <mxCell id="MTes7KhfShOdjZcSvgRo-13" value="建筑重点实验室" style="text;html=1;strokeColor=none;fillColor=none;align=center;verticalAlign=middle;whiteSpace=wrap;rounded=0;" vertex="1" parent="MTes7KhfShOdjZcSvgRo-11">
          <mxGeometry x="29.257950530035334" y="8.600000000000001" width="175.547703180212" height="34.400000000000006" as="geometry" />
        </mxCell>
        <mxCell id="MTes7KhfShOdjZcSvgRo-14" value="&lt;font color=&quot;#ff3333&quot;&gt;速度中国&lt;/font&gt;" style="text;html=1;strokeColor=none;fillColor=none;align=center;verticalAlign=middle;whiteSpace=wrap;rounded=0;" vertex="1" parent="MTes7KhfShOdjZcSvgRo-11">
          <mxGeometry x="39.01060070671378" y="43" width="156.04240282685512" height="34.400000000000006" as="geometry" />
        </mxCell>
        <mxCell id="MTes7KhfShOdjZcSvgRo-17" value="" style="group" vertex="1" connectable="0" parent="1">
          <mxGeometry x="329.2226148409894" y="397.20000000000005" width="234.06360424028267" height="86" as="geometry" />
        </mxCell>
        <mxCell id="MTes7KhfShOdjZcSvgRo-18" value="" style="whiteSpace=wrap;html=1;rounded=1;shadow=1;comic=0;labelBackgroundColor=none;strokeWidth=2;fontFamily=Verdana;fontSize=12;align=center;arcSize=50;" vertex="1" parent="MTes7KhfShOdjZcSvgRo-17">
          <mxGeometry width="234.06360424028267" height="86" as="geometry" />
        </mxCell>
        <mxCell id="MTes7KhfShOdjZcSvgRo-19" value="交网重点实验室" style="text;html=1;strokeColor=none;fillColor=none;align=center;verticalAlign=middle;whiteSpace=wrap;rounded=0;" vertex="1" parent="MTes7KhfShOdjZcSvgRo-17">
          <mxGeometry x="29.257950530035334" y="8.600000000000001" width="175.547703180212" height="34.400000000000006" as="geometry" />
        </mxCell>
        <mxCell id="MTes7KhfShOdjZcSvgRo-20" value="&lt;font color=&quot;#ff3333&quot;&gt;众和科技&lt;/font&gt;" style="text;html=1;strokeColor=none;fillColor=none;align=center;verticalAlign=middle;whiteSpace=wrap;rounded=0;" vertex="1" parent="MTes7KhfShOdjZcSvgRo-17">
          <mxGeometry x="39.01060070671378" y="43" width="156.04240282685512" height="34.400000000000006" as="geometry" />
        </mxCell>
        <mxCell id="MTes7KhfShOdjZcSvgRo-21" value="" style="endArrow=classic;html=1;exitX=1;exitY=1;exitDx=0;exitDy=0;rounded=0;entryX=0.029;entryY=0.24;entryDx=0;entryDy=0;entryPerimeter=0;" edge="1" parent="1" source="2c924340bb9dbf6c-2" target="MTes7KhfShOdjZcSvgRo-18">
          <mxGeometry x="-490" y="-480" width="50" height="50" as="geometry">
            <mxPoint x="36.64310954064092" y="278.004" as="sourcePoint" />
            <mxPoint x="279.8351943462899" y="259.6" as="targetPoint" />
          </mxGeometry>
        </mxCell>
        <mxCell id="MTes7KhfShOdjZcSvgRo-22" value="" style="endArrow=classic;html=1;rounded=0;fillColor=#e51400;strokeColor=#FF3333;entryX=0;entryY=0.4;entryDx=0;entryDy=0;entryPerimeter=0;exitX=0.798;exitY=0.903;exitDx=0;exitDy=0;exitPerimeter=0;" edge="1" parent="1" source="2c924340bb9dbf6c-2" target="MTes7KhfShOdjZcSvgRo-18">
          <mxGeometry x="-490" y="-480" width="50" height="50" as="geometry">
            <mxPoint x="-21.872791519434656" y="278.33079999999995" as="sourcePoint" />
            <mxPoint x="214.9995759717316" y="259.6" as="targetPoint" />
          </mxGeometry>
        </mxCell>
        <mxCell id="MTes7KhfShOdjZcSvgRo-23" value="" style="group" vertex="1" connectable="0" parent="1">
          <mxGeometry x="-80.38869257950529" y="448.80000000000007" width="234.06360424028267" height="86" as="geometry" />
        </mxCell>
        <mxCell id="MTes7KhfShOdjZcSvgRo-24" value="" style="whiteSpace=wrap;html=1;rounded=1;shadow=1;comic=0;labelBackgroundColor=none;strokeWidth=2;fontFamily=Verdana;fontSize=12;align=center;arcSize=50;" vertex="1" parent="MTes7KhfShOdjZcSvgRo-23">
          <mxGeometry width="234.06360424028267" height="86" as="geometry" />
        </mxCell>
        <mxCell id="MTes7KhfShOdjZcSvgRo-25" value="电网重点实验室" style="text;html=1;strokeColor=none;fillColor=none;align=center;verticalAlign=middle;whiteSpace=wrap;rounded=0;" vertex="1" parent="MTes7KhfShOdjZcSvgRo-23">
          <mxGeometry x="29.257950530035334" y="8.600000000000001" width="175.547703180212" height="34.400000000000006" as="geometry" />
        </mxCell>
        <mxCell id="MTes7KhfShOdjZcSvgRo-26" value="&lt;font color=&quot;#ff3333&quot;&gt;中电联&lt;/font&gt;" style="text;html=1;strokeColor=none;fillColor=none;align=center;verticalAlign=middle;whiteSpace=wrap;rounded=0;" vertex="1" parent="MTes7KhfShOdjZcSvgRo-23">
          <mxGeometry x="39.01060070671378" y="43" width="156.04240282685512" height="34.400000000000006" as="geometry" />
        </mxCell>
        <mxCell id="MTes7KhfShOdjZcSvgRo-27" value="" style="endArrow=classic;html=1;strokeColor=#FF3333;entryX=0.37;entryY=-0.017;entryDx=0;entryDy=0;entryPerimeter=0;exitX=0.446;exitY=0.983;exitDx=0;exitDy=0;exitPerimeter=0;" edge="1" parent="1" source="2c924340bb9dbf6c-2" target="MTes7KhfShOdjZcSvgRo-24">
          <mxGeometry x="-490" y="-480" width="50" height="50" as="geometry">
            <mxPoint x="-60.88339222614837" y="345.60000000000014" as="sourcePoint" />
            <mxPoint x="36.64310954063603" y="259.6" as="targetPoint" />
          </mxGeometry>
        </mxCell>
        <mxCell id="MTes7KhfShOdjZcSvgRo-28" value="" style="endArrow=classic;html=1;exitX=0.5;exitY=1;exitDx=0;exitDy=0;rounded=0;entryX=0.431;entryY=-0.009;entryDx=0;entryDy=0;entryPerimeter=0;" edge="1" parent="1" source="2c924340bb9dbf6c-2" target="MTes7KhfShOdjZcSvgRo-24">
          <mxGeometry x="-490" y="-480" width="50" height="50" as="geometry">
            <mxPoint x="17.130800681620315" y="270.40894654563454" as="sourcePoint" />
            <mxPoint x="253.2494699646644" y="397.20000000000005" as="targetPoint" />
          </mxGeometry>
        </mxCell>
        <mxCell id="MTes7KhfShOdjZcSvgRo-29" value="" style="group" vertex="1" connectable="0" parent="1">
          <mxGeometry x="-450.9893992932862" y="362.80000000000007" width="234.06360424028267" height="86" as="geometry" />
        </mxCell>
        <mxCell id="MTes7KhfShOdjZcSvgRo-30" value="" style="whiteSpace=wrap;html=1;rounded=1;shadow=1;comic=0;labelBackgroundColor=none;strokeWidth=2;fontFamily=Verdana;fontSize=12;align=center;arcSize=50;" vertex="1" parent="MTes7KhfShOdjZcSvgRo-29">
          <mxGeometry width="234.06360424028267" height="86" as="geometry" />
        </mxCell>
        <mxCell id="MTes7KhfShOdjZcSvgRo-31" value="人文重点实验室" style="text;html=1;strokeColor=none;fillColor=none;align=center;verticalAlign=middle;whiteSpace=wrap;rounded=0;" vertex="1" parent="MTes7KhfShOdjZcSvgRo-29">
          <mxGeometry y="8.600000000000001" width="214.5583038869258" height="34.400000000000006" as="geometry" />
        </mxCell>
        <mxCell id="MTes7KhfShOdjZcSvgRo-32" value="&lt;font color=&quot;#ff3333&quot;&gt;兰州大学&lt;/font&gt;" style="text;html=1;strokeColor=none;fillColor=none;align=center;verticalAlign=middle;whiteSpace=wrap;rounded=0;" vertex="1" parent="MTes7KhfShOdjZcSvgRo-29">
          <mxGeometry x="39.01060070671378" y="43" width="156.04240282685512" height="34.400000000000006" as="geometry" />
        </mxCell>
        <mxCell id="MTes7KhfShOdjZcSvgRo-33" value="" style="endArrow=classic;html=1;strokeColor=#FF3333;exitX=0.132;exitY=0.843;exitDx=0;exitDy=0;entryX=0.807;entryY=-0.002;entryDx=0;entryDy=0;entryPerimeter=0;exitPerimeter=0;" edge="1" parent="1" source="2c924340bb9dbf6c-2" target="MTes7KhfShOdjZcSvgRo-30">
          <mxGeometry x="-490" y="-480" width="50" height="50" as="geometry">
            <mxPoint x="-255.93639575971733" y="311.20000000000005" as="sourcePoint" />
            <mxPoint x="-158.40989399293284" y="225.20000000000005" as="targetPoint" />
          </mxGeometry>
        </mxCell>
        <mxCell id="MTes7KhfShOdjZcSvgRo-34" value="" style="endArrow=classic;html=1;rounded=0;exitX=0.174;exitY=0.88;exitDx=0;exitDy=0;exitPerimeter=0;entryX=0.881;entryY=0.064;entryDx=0;entryDy=0;entryPerimeter=0;" edge="1" parent="1" source="2c924340bb9dbf6c-2" target="MTes7KhfShOdjZcSvgRo-30">
          <mxGeometry x="-490" y="-480" width="50" height="50" as="geometry">
            <mxPoint x="-99.8939929328622" y="242.77840000000003" as="sourcePoint" />
            <mxPoint x="-287.1448763250883" y="385.15999999999997" as="targetPoint" />
          </mxGeometry>
        </mxCell>
        <mxCell id="MTes7KhfShOdjZcSvgRo-35" value="" style="group" vertex="1" connectable="0" parent="1">
          <mxGeometry x="-490" y="122" width="234.06360424028267" height="86" as="geometry" />
        </mxCell>
        <mxCell id="MTes7KhfShOdjZcSvgRo-36" value="" style="whiteSpace=wrap;html=1;rounded=1;shadow=1;comic=0;labelBackgroundColor=none;strokeWidth=2;fontFamily=Verdana;fontSize=12;align=center;arcSize=50;" vertex="1" parent="MTes7KhfShOdjZcSvgRo-35">
          <mxGeometry width="234.06360424028267" height="86" as="geometry" />
        </mxCell>
        <mxCell id="MTes7KhfShOdjZcSvgRo-37" value="市政重点实验室" style="text;html=1;strokeColor=none;fillColor=none;align=center;verticalAlign=middle;whiteSpace=wrap;rounded=0;" vertex="1" parent="MTes7KhfShOdjZcSvgRo-35">
          <mxGeometry y="8.600000000000001" width="214.5583038869258" height="34.400000000000006" as="geometry" />
        </mxCell>
        <mxCell id="MTes7KhfShOdjZcSvgRo-38" value="&lt;font color=&quot;#ff3333&quot;&gt;待定&lt;/font&gt;" style="text;html=1;strokeColor=none;fillColor=none;align=center;verticalAlign=middle;whiteSpace=wrap;rounded=0;" vertex="1" parent="MTes7KhfShOdjZcSvgRo-35">
          <mxGeometry x="39.01060070671378" y="43" width="156.04240282685512" height="34.400000000000006" as="geometry" />
        </mxCell>
        <mxCell id="MTes7KhfShOdjZcSvgRo-39" value="" style="endArrow=classic;html=1;strokeColor=#FF3333;exitX=0.002;exitY=0.444;exitDx=0;exitDy=0;entryX=0.993;entryY=0.311;entryDx=0;entryDy=0;entryPerimeter=0;exitPerimeter=0;" edge="1" parent="1" source="2c924340bb9dbf6c-2" target="MTes7KhfShOdjZcSvgRo-36">
          <mxGeometry x="-490" y="-480" width="50" height="50" as="geometry">
            <mxPoint x="-160.36042402826877" y="-84.40000000000009" as="sourcePoint" />
            <mxPoint x="-392.47349823321576" y="91.83119999999985" as="targetPoint" />
          </mxGeometry>
        </mxCell>
        <mxCell id="MTes7KhfShOdjZcSvgRo-40" value="" style="endArrow=classic;html=1;rounded=0;exitX=-0.005;exitY=0.524;exitDx=0;exitDy=0;exitPerimeter=0;entryX=0.995;entryY=0.444;entryDx=0;entryDy=0;entryPerimeter=0;" edge="1" parent="1" source="2c924340bb9dbf6c-2" target="MTes7KhfShOdjZcSvgRo-36">
          <mxGeometry x="-490" y="-480" width="50" height="50" as="geometry">
            <mxPoint x="-144.99024734982333" y="173.60000000000014" as="sourcePoint" />
            <mxPoint x="-372.9681978798587" y="350.0720000000001" as="targetPoint" />
          </mxGeometry>
        </mxCell>
        <mxCell id="MTes7KhfShOdjZcSvgRo-41" value="" style="group" vertex="1" connectable="0" parent="1">
          <mxGeometry x="-392.47349823321554" y="-101.59999999999997" width="234.06360424028267" height="86" as="geometry" />
        </mxCell>
        <mxCell id="MTes7KhfShOdjZcSvgRo-42" value="" style="whiteSpace=wrap;html=1;rounded=1;shadow=1;comic=0;labelBackgroundColor=none;strokeWidth=2;fontFamily=Verdana;fontSize=12;align=center;arcSize=50;" vertex="1" parent="MTes7KhfShOdjZcSvgRo-41">
          <mxGeometry width="234.06360424028267" height="86" as="geometry" />
        </mxCell>
        <mxCell id="MTes7KhfShOdjZcSvgRo-43" value="水网重点实验室" style="text;html=1;strokeColor=none;fillColor=none;align=center;verticalAlign=middle;whiteSpace=wrap;rounded=0;" vertex="1" parent="MTes7KhfShOdjZcSvgRo-41">
          <mxGeometry y="8.600000000000001" width="214.5583038869258" height="34.400000000000006" as="geometry" />
        </mxCell>
        <mxCell id="MTes7KhfShOdjZcSvgRo-44" value="&lt;font color=&quot;#ff3333&quot;&gt;待定&lt;/font&gt;" style="text;html=1;strokeColor=none;fillColor=none;align=center;verticalAlign=middle;whiteSpace=wrap;rounded=0;" vertex="1" parent="MTes7KhfShOdjZcSvgRo-41">
          <mxGeometry x="39.01060070671378" y="43" width="156.04240282685512" height="34.400000000000006" as="geometry" />
        </mxCell>
        <mxCell id="MTes7KhfShOdjZcSvgRo-45" value="" style="endArrow=classic;html=1;strokeColor=#FF3333;entryX=0.997;entryY=0.658;entryDx=0;entryDy=0;exitX=0.219;exitY=0.092;exitDx=0;exitDy=0;exitPerimeter=0;entryPerimeter=0;" edge="1" parent="1" source="2c924340bb9dbf6c-2" target="MTes7KhfShOdjZcSvgRo-42">
          <mxGeometry x="-490" y="-480" width="50" height="50" as="geometry">
            <mxPoint x="-0.2609187279151115" y="-24.698799999999835" as="sourcePoint" />
            <mxPoint x="-236.4310954063602" y="-24.647199999999884" as="targetPoint" />
          </mxGeometry>
        </mxCell>
        <mxCell id="MTes7KhfShOdjZcSvgRo-46" value="" style="endArrow=classic;html=1;rounded=0;exitX=0.246;exitY=0.069;exitDx=0;exitDy=0;exitPerimeter=0;entryX=1.005;entryY=0.552;entryDx=0;entryDy=0;entryPerimeter=0;" edge="1" parent="1" source="2c924340bb9dbf6c-2" target="MTes7KhfShOdjZcSvgRo-42">
          <mxGeometry x="-490" y="-480" width="50" height="50" as="geometry">
            <mxPoint x="36.64310954063592" y="-59.0988000000001" as="sourcePoint" />
            <mxPoint x="-197.4204946996469" y="-58.61720000000008" as="targetPoint" />
          </mxGeometry>
        </mxCell>
        <mxCell id="MTes7KhfShOdjZcSvgRo-55" value="" style="shape=flexArrow;endArrow=classic;html=1;entryX=0.5;entryY=0;entryDx=0;entryDy=0;exitX=0.5;exitY=1;exitDx=0;exitDy=0;" edge="1" parent="1" source="MTes7KhfShOdjZcSvgRo-48" target="2c924340bb9dbf6c-2">
          <mxGeometry x="-490" y="-480" width="50" height="50" as="geometry">
            <mxPoint x="-41.378091872791515" y="-308" as="sourcePoint" />
            <mxPoint x="56.14840989399295" y="-394" as="targetPoint" />
          </mxGeometry>
        </mxCell>
        <mxCell id="MTes7KhfShOdjZcSvgRo-56" value="" style="group" vertex="1" connectable="0" parent="1">
          <mxGeometry x="-236.43109540636044" y="-440" width="507.1378091872791" height="291.98" as="geometry" />
        </mxCell>
        <mxCell id="MTes7KhfShOdjZcSvgRo-48" value="" style="ellipse;whiteSpace=wrap;html=1;rounded=1;shadow=1;comic=0;labelBackgroundColor=none;strokeWidth=2;fontFamily=Verdana;fontSize=12;align=center;" vertex="1" parent="MTes7KhfShOdjZcSvgRo-56">
          <mxGeometry width="507.1378091872791" height="189.20000000000002" as="geometry" />
        </mxCell>
        <mxCell id="MTes7KhfShOdjZcSvgRo-51" value="&lt;font style=&quot;font-size: 20px&quot;&gt;解放军陆军研究院&lt;/font&gt;" style="text;html=1;strokeColor=none;fillColor=none;align=center;verticalAlign=middle;whiteSpace=wrap;rounded=0;" vertex="1" parent="MTes7KhfShOdjZcSvgRo-56">
          <mxGeometry x="83.87929328621908" y="37.410000000000004" width="338.0918727915195" height="47.300000000000004" as="geometry" />
        </mxCell>
        <mxCell id="MTes7KhfShOdjZcSvgRo-52" value="兰州大学" style="text;html=1;strokeColor=none;fillColor=none;align=center;verticalAlign=middle;whiteSpace=wrap;rounded=0;fontSize=20;" vertex="1" parent="MTes7KhfShOdjZcSvgRo-56">
          <mxGeometry x="83.87929328621908" y="66.22000000000001" width="338.0918727915195" height="47.300000000000004" as="geometry" />
        </mxCell>
        <mxCell id="MTes7KhfShOdjZcSvgRo-53" value="深圳大学" style="text;html=1;strokeColor=none;fillColor=none;align=center;verticalAlign=middle;whiteSpace=wrap;rounded=0;fontSize=20;" vertex="1" parent="MTes7KhfShOdjZcSvgRo-56">
          <mxGeometry x="83.87929328621908" y="93.31" width="338.0918727915195" height="47.300000000000004" as="geometry" />
        </mxCell>
        <mxCell id="MTes7KhfShOdjZcSvgRo-54" value="河南大学" style="text;html=1;strokeColor=none;fillColor=none;align=center;verticalAlign=middle;whiteSpace=wrap;rounded=0;fontSize=20;" vertex="1" parent="MTes7KhfShOdjZcSvgRo-56">
          <mxGeometry x="83.87929328621908" y="118.68" width="338.0918727915195" height="47.300000000000004" as="geometry" />
        </mxCell>
        <mxCell id="MTes7KhfShOdjZcSvgRo-133" value="中国工程院院士" style="html=1;whiteSpace=wrap;aspect=fixed;shape=isoRectangle;rounded=1;fontSize=20;" vertex="1" parent="MTes7KhfShOdjZcSvgRo-56">
          <mxGeometry x="-153.56890459363956" y="165.98" width="210" height="126" as="geometry" />
        </mxCell>
        <mxCell id="MTes7KhfShOdjZcSvgRo-134" value="" style="shape=flexArrow;endArrow=classic;html=1;strokeColor=#000000;fontSize=20;" edge="1" parent="MTes7KhfShOdjZcSvgRo-56" source="MTes7KhfShOdjZcSvgRo-133">
          <mxGeometry width="50" height="50" relative="1" as="geometry">
            <mxPoint x="312.8621908127209" y="688.98" as="sourcePoint" />
            <mxPoint x="246.43109540636044" y="236" as="targetPoint" />
          </mxGeometry>
        </mxCell>
        <mxCell id="MTes7KhfShOdjZcSvgRo-58" value="&lt;font color=&quot;#ff3333&quot;&gt;西迪亚斯&lt;/font&gt;" style="ellipse;shape=doubleEllipse;whiteSpace=wrap;html=1;rounded=1;" vertex="1" parent="1">
          <mxGeometry x="679.0069964664312" y="28.00000000000007" width="76.71" height="76" as="geometry" />
        </mxCell>
        <mxCell id="MTes7KhfShOdjZcSvgRo-61" value="" style="endArrow=classic;html=1;exitX=1;exitY=0.5;exitDx=0;exitDy=0;rounded=0;entryX=0.003;entryY=0.388;entryDx=0;entryDy=0;entryPerimeter=0;" edge="1" parent="1" source="2c924340bb9dbf6c-2" target="MTes7KhfShOdjZcSvgRo-12">
          <mxGeometry x="-490" y="-480" width="50" height="50" as="geometry">
            <mxPoint x="134.1696113074205" y="274.39200000000005" as="sourcePoint" />
            <mxPoint x="239.88833922261495" y="173.60000000000014" as="targetPoint" />
          </mxGeometry>
        </mxCell>
        <mxCell id="MTes7KhfShOdjZcSvgRo-62" value="" style="endArrow=classic;html=1;rounded=0;fillColor=#e51400;strokeColor=#FF3333;exitX=0.992;exitY=0.638;exitDx=0;exitDy=0;exitPerimeter=0;entryX=0.009;entryY=0.609;entryDx=0;entryDy=0;entryPerimeter=0;" edge="1" parent="1" source="2c924340bb9dbf6c-2" target="MTes7KhfShOdjZcSvgRo-12">
          <mxGeometry x="-490" y="-480" width="50" height="50" as="geometry">
            <mxPoint x="163.42756183745576" y="274.39200000000005" as="sourcePoint" />
            <mxPoint x="268.75618374558303" y="173.60000000000014" as="targetPoint" />
          </mxGeometry>
        </mxCell>
        <mxCell id="MTes7KhfShOdjZcSvgRo-63" value="" style="endArrow=classic;html=1;rounded=0;fillColor=#e51400;strokeColor=#FF3333;exitX=0.968;exitY=0.231;exitDx=0;exitDy=0;exitPerimeter=0;" edge="1" parent="1" source="MTes7KhfShOdjZcSvgRo-12" target="MTes7KhfShOdjZcSvgRo-58">
          <mxGeometry x="-490" y="-480" width="50" height="50" as="geometry">
            <mxPoint x="660.8127208480564" y="234.81479999999988" as="sourcePoint" />
            <mxPoint x="898.8554063604236" y="233.79999999999995" as="targetPoint" />
          </mxGeometry>
        </mxCell>
        <mxCell id="MTes7KhfShOdjZcSvgRo-64" value="&lt;font color=&quot;#ff3333&quot;&gt;青云数码&lt;/font&gt;" style="ellipse;shape=doubleEllipse;whiteSpace=wrap;html=1;rounded=1;" vertex="1" parent="1">
          <mxGeometry x="689.999222614841" y="104" width="76.71" height="76" as="geometry" />
        </mxCell>
        <mxCell id="MTes7KhfShOdjZcSvgRo-65" value="" style="endArrow=classic;html=1;rounded=0;fillColor=#e51400;strokeColor=#FF3333;exitX=1;exitY=0.5;exitDx=0;exitDy=0;" edge="1" parent="1" source="MTes7KhfShOdjZcSvgRo-12" target="MTes7KhfShOdjZcSvgRo-64">
          <mxGeometry x="-490" y="-480" width="50" height="50" as="geometry">
            <mxPoint x="621.8021201413428" y="182.20000000000005" as="sourcePoint" />
            <mxPoint x="764.9335256164252" y="127.3101394380459" as="targetPoint" />
          </mxGeometry>
        </mxCell>
        <mxCell id="MTes7KhfShOdjZcSvgRo-66" value="&lt;font color=&quot;#ff3333&quot;&gt;浙江大学计算机学院&lt;/font&gt;" style="ellipse;shape=doubleEllipse;whiteSpace=wrap;html=1;rounded=1;" vertex="1" parent="1">
          <mxGeometry x="679.009222614841" y="179.99999999999997" width="76.71" height="76" as="geometry" />
        </mxCell>
        <mxCell id="MTes7KhfShOdjZcSvgRo-67" value="" style="endArrow=classic;html=1;rounded=0;fillColor=#e51400;strokeColor=#FF3333;exitX=1;exitY=0.75;exitDx=0;exitDy=0;entryX=0;entryY=0.5;entryDx=0;entryDy=0;" edge="1" parent="1" source="MTes7KhfShOdjZcSvgRo-12" target="MTes7KhfShOdjZcSvgRo-66">
          <mxGeometry x="-490" y="-480" width="50" height="50" as="geometry">
            <mxPoint x="602.2968197879859" y="204.56000000000006" as="sourcePoint" />
            <mxPoint x="741.0661760482471" y="234.2367534399225" as="targetPoint" />
          </mxGeometry>
        </mxCell>
        <mxCell id="MTes7KhfShOdjZcSvgRo-68" value="&lt;font color=&quot;#ff3333&quot;&gt;中国建筑设计研究院&lt;/font&gt;" style="ellipse;shape=doubleEllipse;whiteSpace=wrap;html=1;rounded=1;" vertex="1" parent="1">
          <mxGeometry x="633.29" y="-32.8" width="76.71" height="76" as="geometry" />
        </mxCell>
        <mxCell id="MTes7KhfShOdjZcSvgRo-69" value="" style="endArrow=classic;html=1;rounded=0;fillColor=#e51400;strokeColor=#FF3333;exitX=0.935;exitY=0.114;exitDx=0;exitDy=0;entryX=0.272;entryY=0.928;entryDx=0;entryDy=0;entryPerimeter=0;exitPerimeter=0;" edge="1" parent="1" source="MTes7KhfShOdjZcSvgRo-12" target="MTes7KhfShOdjZcSvgRo-68">
          <mxGeometry x="-490" y="-480" width="50" height="50" as="geometry">
            <mxPoint x="614.3120848056535" y="159.06600000000003" as="sourcePoint" />
            <mxPoint x="753.692571393902" y="68.65414554078211" as="targetPoint" />
          </mxGeometry>
        </mxCell>
        <mxCell id="MTes7KhfShOdjZcSvgRo-70" value="&lt;font color=&quot;#ff3333&quot;&gt;中国规划设计研究院&lt;/font&gt;" style="ellipse;shape=doubleEllipse;whiteSpace=wrap;html=1;rounded=1;" vertex="1" parent="1">
          <mxGeometry x="633.2939222614839" y="250.00000000000006" width="76.71" height="76" as="geometry" />
        </mxCell>
        <mxCell id="MTes7KhfShOdjZcSvgRo-71" value="" style="endArrow=classic;html=1;rounded=0;fillColor=#e51400;strokeColor=#FF3333;exitX=0.877;exitY=0.944;exitDx=0;exitDy=0;exitPerimeter=0;" edge="1" parent="1" source="MTes7KhfShOdjZcSvgRo-12" target="MTes7KhfShOdjZcSvgRo-70">
          <mxGeometry x="-490" y="-480" width="50" height="50" as="geometry">
            <mxPoint x="563.2862190812721" y="139.20000000000027" as="sourcePoint" />
            <mxPoint x="648.6219081272084" y="10.20000000000016" as="targetPoint" />
          </mxGeometry>
        </mxCell>
        <mxCell id="MTes7KhfShOdjZcSvgRo-72" value="&lt;font color=&quot;#ff3333&quot;&gt;众和科技成都公司&lt;/font&gt;" style="ellipse;shape=doubleEllipse;whiteSpace=wrap;html=1;rounded=1;" vertex="1" parent="1">
          <mxGeometry x="602.3039222614838" y="330.00000000000006" width="76.71" height="76" as="geometry" />
        </mxCell>
        <mxCell id="MTes7KhfShOdjZcSvgRo-73" value="" style="endArrow=classic;html=1;rounded=0;fillColor=#e51400;strokeColor=#FF3333;exitX=0.979;exitY=0.257;exitDx=0;exitDy=0;entryX=0;entryY=0.5;entryDx=0;entryDy=0;exitPerimeter=0;" edge="1" parent="1" source="MTes7KhfShOdjZcSvgRo-18" target="MTes7KhfShOdjZcSvgRo-72">
          <mxGeometry x="-490" y="-480" width="50" height="50" as="geometry">
            <mxPoint x="582.791519434629" y="328.4" as="sourcePoint" />
            <mxPoint x="729.7959852718673" y="424.2861306920604" as="targetPoint" />
          </mxGeometry>
        </mxCell>
        <mxCell id="MTes7KhfShOdjZcSvgRo-74" value="&lt;font color=&quot;#ff3333&quot;&gt;中交集团&lt;/font&gt;" style="ellipse;shape=doubleEllipse;whiteSpace=wrap;html=1;rounded=1;" vertex="1" parent="1">
          <mxGeometry x="613.2927208480564" y="406.00000000000006" width="76.71" height="76" as="geometry" />
        </mxCell>
        <mxCell id="MTes7KhfShOdjZcSvgRo-75" value="" style="endArrow=classic;html=1;rounded=0;fillColor=#e51400;strokeColor=#FF3333;entryX=0;entryY=0.5;entryDx=0;entryDy=0;" edge="1" parent="1" source="MTes7KhfShOdjZcSvgRo-18" target="MTes7KhfShOdjZcSvgRo-74">
          <mxGeometry x="-490" y="-480" width="50" height="50" as="geometry">
            <mxPoint x="582.791519434629" y="457.4" as="sourcePoint" />
            <mxPoint x="758.339222614841" y="517.6000000000001" as="targetPoint" />
          </mxGeometry>
        </mxCell>
        <mxCell id="MTes7KhfShOdjZcSvgRo-76" value="&lt;font color=&quot;#ff3333&quot;&gt;中铁设&lt;br&gt;（铁三院）&lt;/font&gt;" style="ellipse;shape=doubleEllipse;whiteSpace=wrap;html=1;rounded=1;" vertex="1" parent="1">
          <mxGeometry x="602.2956183745582" y="482.00000000000006" width="76.71" height="76" as="geometry" />
        </mxCell>
        <mxCell id="MTes7KhfShOdjZcSvgRo-77" value="" style="endArrow=classic;html=1;rounded=0;fillColor=#e51400;strokeColor=#FF3333;exitX=0.981;exitY=0.725;exitDx=0;exitDy=0;exitPerimeter=0;" edge="1" parent="1" source="MTes7KhfShOdjZcSvgRo-18" target="MTes7KhfShOdjZcSvgRo-76">
          <mxGeometry x="-490" y="-480" width="50" height="50" as="geometry">
            <mxPoint x="582.791519434629" y="478.9" as="sourcePoint" />
            <mxPoint x="699.8893128752861" y="601.287372720393" as="targetPoint" />
          </mxGeometry>
        </mxCell>
        <mxCell id="MTes7KhfShOdjZcSvgRo-78" value="&lt;font color=&quot;#ff3333&quot;&gt;中国交通科学研究院&lt;/font&gt;" style="ellipse;shape=doubleEllipse;whiteSpace=wrap;html=1;rounded=1;" vertex="1" parent="1">
          <mxGeometry x="563.2832155477032" y="550.0000000000001" width="76.71" height="76" as="geometry" />
        </mxCell>
        <mxCell id="MTes7KhfShOdjZcSvgRo-79" value="" style="endArrow=classic;html=1;rounded=0;fillColor=#e51400;strokeColor=#FF3333;exitX=0.923;exitY=0.92;exitDx=0;exitDy=0;exitPerimeter=0;" edge="1" parent="1" source="MTes7KhfShOdjZcSvgRo-18" target="MTes7KhfShOdjZcSvgRo-78">
          <mxGeometry x="-490" y="-480" width="50" height="50" as="geometry">
            <mxPoint x="524.2756183745582" y="500.4000000000001" as="sourcePoint" />
            <mxPoint x="612.0494699646645" y="672.4000000000001" as="targetPoint" />
          </mxGeometry>
        </mxCell>
        <mxCell id="MTes7KhfShOdjZcSvgRo-80" value="&lt;font color=&quot;#ff3333&quot;&gt;中地数码&lt;/font&gt;" style="ellipse;shape=doubleEllipse;whiteSpace=wrap;html=1;rounded=1;" vertex="1" parent="1">
          <mxGeometry x="399.99544169611295" y="-220" width="76.71" height="76" as="geometry" />
        </mxCell>
        <mxCell id="MTes7KhfShOdjZcSvgRo-81" value="" style="endArrow=classic;html=1;rounded=0;fillColor=#e51400;strokeColor=#FF3333;exitX=0.875;exitY=0.013;exitDx=0;exitDy=0;entryX=0;entryY=1;entryDx=0;entryDy=0;exitPerimeter=0;" edge="1" parent="1" source="MTes7KhfShOdjZcSvgRo-6" target="MTes7KhfShOdjZcSvgRo-80">
          <mxGeometry x="-490" y="-480" width="50" height="50" as="geometry">
            <mxPoint x="449.4532862190813" y="-32.799999999999784" as="sourcePoint" />
            <mxPoint x="504.7703180212018" y="-195.03039999999987" as="targetPoint" />
          </mxGeometry>
        </mxCell>
        <mxCell id="MTes7KhfShOdjZcSvgRo-82" value="&lt;font color=&quot;#ff3333&quot;&gt;清华紫光&lt;/font&gt;" style="ellipse;shape=doubleEllipse;whiteSpace=wrap;html=1;rounded=1;" vertex="1" parent="1">
          <mxGeometry x="-9.99639575971733" y="620" width="76.71" height="76" as="geometry" />
        </mxCell>
        <mxCell id="MTes7KhfShOdjZcSvgRo-83" value="" style="endArrow=classic;html=1;rounded=0;fillColor=#e51400;strokeColor=#FF3333;entryX=0.5;entryY=0;entryDx=0;entryDy=0;exitX=0.467;exitY=0.999;exitDx=0;exitDy=0;exitPerimeter=0;" edge="1" parent="1" source="MTes7KhfShOdjZcSvgRo-24" target="MTes7KhfShOdjZcSvgRo-82">
          <mxGeometry x="-490" y="-480" width="50" height="50" as="geometry">
            <mxPoint x="-53.33484098939931" y="586.4000000000001" as="sourcePoint" />
            <mxPoint x="-60.88642473376484" y="792.8312971116443" as="targetPoint" />
          </mxGeometry>
        </mxCell>
        <mxCell id="MTes7KhfShOdjZcSvgRo-91" value="" style="shape=table;html=1;whiteSpace=wrap;startSize=0;container=1;collapsible=0;childLayout=tableLayout;columnLines=0;rowLines=0;rounded=1;" vertex="1" parent="1">
          <mxGeometry x="405.65" y="-22.4" width="159.23" height="110" as="geometry" />
        </mxCell>
        <mxCell id="MTes7KhfShOdjZcSvgRo-92" value="" style="shape=partialRectangle;html=1;whiteSpace=wrap;collapsible=0;dropTarget=0;pointerEvents=0;fillColor=none;top=0;left=0;bottom=0;right=0;points=[[0,0.5],[1,0.5]];portConstraint=eastwest;" vertex="1" parent="MTes7KhfShOdjZcSvgRo-91">
          <mxGeometry width="159.23" height="37" as="geometry" />
        </mxCell>
        <mxCell id="MTes7KhfShOdjZcSvgRo-93" value="" style="shape=partialRectangle;html=1;whiteSpace=wrap;connectable=0;fillColor=none;top=0;left=0;bottom=0;right=0;overflow=hidden;" vertex="1" parent="MTes7KhfShOdjZcSvgRo-92">
          <mxGeometry width="53" height="37" as="geometry" />
        </mxCell>
        <mxCell id="MTes7KhfShOdjZcSvgRo-94" value="AI识别" style="shape=partialRectangle;html=1;whiteSpace=wrap;connectable=0;fillColor=none;top=0;left=0;bottom=0;right=0;overflow=hidden;" vertex="1" parent="MTes7KhfShOdjZcSvgRo-92">
          <mxGeometry x="53" width="53" height="37" as="geometry" />
        </mxCell>
        <mxCell id="MTes7KhfShOdjZcSvgRo-95" value="封闭园区数据库" style="shape=partialRectangle;html=1;whiteSpace=wrap;connectable=0;fillColor=none;top=0;left=0;bottom=0;right=0;overflow=hidden;" vertex="1" parent="MTes7KhfShOdjZcSvgRo-92">
          <mxGeometry x="106" width="53" height="37" as="geometry" />
        </mxCell>
        <mxCell id="MTes7KhfShOdjZcSvgRo-96" value="" style="shape=partialRectangle;html=1;whiteSpace=wrap;collapsible=0;dropTarget=0;pointerEvents=0;fillColor=none;top=0;left=0;bottom=0;right=0;points=[[0,0.5],[1,0.5]];portConstraint=eastwest;" vertex="1" parent="MTes7KhfShOdjZcSvgRo-91">
          <mxGeometry y="37" width="159.23" height="36" as="geometry" />
        </mxCell>
        <mxCell id="MTes7KhfShOdjZcSvgRo-97" value="开放园区数据库" style="shape=partialRectangle;html=1;whiteSpace=wrap;connectable=0;fillColor=none;top=0;left=0;bottom=0;right=0;overflow=hidden;" vertex="1" parent="MTes7KhfShOdjZcSvgRo-96">
          <mxGeometry width="53" height="36" as="geometry" />
        </mxCell>
        <mxCell id="MTes7KhfShOdjZcSvgRo-98" value="" style="shape=partialRectangle;html=1;whiteSpace=wrap;connectable=0;fillColor=none;top=0;left=0;bottom=0;right=0;overflow=hidden;" vertex="1" parent="MTes7KhfShOdjZcSvgRo-96">
          <mxGeometry x="53" width="53" height="36" as="geometry" />
        </mxCell>
        <mxCell id="MTes7KhfShOdjZcSvgRo-99" value="IOT集成" style="shape=partialRectangle;html=1;whiteSpace=wrap;connectable=0;fillColor=none;top=0;left=0;bottom=0;right=0;overflow=hidden;" vertex="1" parent="MTes7KhfShOdjZcSvgRo-96">
          <mxGeometry x="106" width="53" height="36" as="geometry" />
        </mxCell>
        <mxCell id="MTes7KhfShOdjZcSvgRo-100" value="" style="shape=partialRectangle;html=1;whiteSpace=wrap;collapsible=0;dropTarget=0;pointerEvents=0;fillColor=none;top=0;left=0;bottom=0;right=0;points=[[0,0.5],[1,0.5]];portConstraint=eastwest;" vertex="1" parent="MTes7KhfShOdjZcSvgRo-91">
          <mxGeometry y="73" width="159.23" height="37" as="geometry" />
        </mxCell>
        <mxCell id="MTes7KhfShOdjZcSvgRo-101" value="人流监控" style="shape=partialRectangle;html=1;whiteSpace=wrap;connectable=0;fillColor=none;top=0;left=0;bottom=0;right=0;overflow=hidden;" vertex="1" parent="MTes7KhfShOdjZcSvgRo-100">
          <mxGeometry width="53" height="37" as="geometry" />
        </mxCell>
        <mxCell id="MTes7KhfShOdjZcSvgRo-102" value="" style="shape=partialRectangle;html=1;whiteSpace=wrap;connectable=0;fillColor=none;top=0;left=0;bottom=0;right=0;overflow=hidden;" vertex="1" parent="MTes7KhfShOdjZcSvgRo-100">
          <mxGeometry x="53" width="53" height="37" as="geometry" />
        </mxCell>
        <mxCell id="MTes7KhfShOdjZcSvgRo-103" value="" style="shape=partialRectangle;html=1;whiteSpace=wrap;connectable=0;fillColor=none;top=0;left=0;bottom=0;right=0;overflow=hidden;" vertex="1" parent="MTes7KhfShOdjZcSvgRo-100">
          <mxGeometry x="106" width="53" height="37" as="geometry" />
        </mxCell>
        <mxCell id="MTes7KhfShOdjZcSvgRo-104" value="" style="endArrow=classic;html=1;exitX=0.5;exitY=0;exitDx=0;exitDy=0;" edge="1" parent="1" source="MTes7KhfShOdjZcSvgRo-12" target="MTes7KhfShOdjZcSvgRo-100">
          <mxGeometry width="50" height="50" relative="1" as="geometry">
            <mxPoint x="380" y="110" as="sourcePoint" />
            <mxPoint x="430" y="60" as="targetPoint" />
          </mxGeometry>
        </mxCell>
        <mxCell id="MTes7KhfShOdjZcSvgRo-105" value="" style="shape=table;html=1;whiteSpace=wrap;startSize=0;container=1;collapsible=0;childLayout=tableLayout;columnLines=0;rowLines=0;rounded=1;" vertex="1" parent="1">
          <mxGeometry x="191.08999999999997" y="-254" width="159.23" height="110" as="geometry" />
        </mxCell>
        <mxCell id="MTes7KhfShOdjZcSvgRo-106" value="" style="shape=partialRectangle;html=1;whiteSpace=wrap;collapsible=0;dropTarget=0;pointerEvents=0;fillColor=none;top=0;left=0;bottom=0;right=0;points=[[0,0.5],[1,0.5]];portConstraint=eastwest;" vertex="1" parent="MTes7KhfShOdjZcSvgRo-105">
          <mxGeometry width="159.23" height="37" as="geometry" />
        </mxCell>
        <mxCell id="MTes7KhfShOdjZcSvgRo-107" value="BIM数据库研究" style="shape=partialRectangle;html=1;whiteSpace=wrap;connectable=0;fillColor=none;top=0;left=0;bottom=0;right=0;overflow=hidden;" vertex="1" parent="MTes7KhfShOdjZcSvgRo-106">
          <mxGeometry width="53" height="37" as="geometry" />
        </mxCell>
        <mxCell id="MTes7KhfShOdjZcSvgRo-108" value="IFC研究" style="shape=partialRectangle;html=1;whiteSpace=wrap;connectable=0;fillColor=none;top=0;left=0;bottom=0;right=0;overflow=hidden;" vertex="1" parent="MTes7KhfShOdjZcSvgRo-106">
          <mxGeometry x="53" width="53" height="37" as="geometry" />
        </mxCell>
        <mxCell id="MTes7KhfShOdjZcSvgRo-109" value="高精度地图" style="shape=partialRectangle;html=1;whiteSpace=wrap;connectable=0;fillColor=none;top=0;left=0;bottom=0;right=0;overflow=hidden;" vertex="1" parent="MTes7KhfShOdjZcSvgRo-106">
          <mxGeometry x="106" width="53" height="37" as="geometry" />
        </mxCell>
        <mxCell id="MTes7KhfShOdjZcSvgRo-110" value="" style="shape=partialRectangle;html=1;whiteSpace=wrap;collapsible=0;dropTarget=0;pointerEvents=0;fillColor=none;top=0;left=0;bottom=0;right=0;points=[[0,0.5],[1,0.5]];portConstraint=eastwest;" vertex="1" parent="MTes7KhfShOdjZcSvgRo-105">
          <mxGeometry y="37" width="159.23" height="36" as="geometry" />
        </mxCell>
        <mxCell id="MTes7KhfShOdjZcSvgRo-111" value="国土规划数据库" style="shape=partialRectangle;html=1;whiteSpace=wrap;connectable=0;fillColor=none;top=0;left=0;bottom=0;right=0;overflow=hidden;" vertex="1" parent="MTes7KhfShOdjZcSvgRo-110">
          <mxGeometry width="53" height="36" as="geometry" />
        </mxCell>
        <mxCell id="MTes7KhfShOdjZcSvgRo-112" value="人流疏散" style="shape=partialRectangle;html=1;whiteSpace=wrap;connectable=0;fillColor=none;top=0;left=0;bottom=0;right=0;overflow=hidden;" vertex="1" parent="MTes7KhfShOdjZcSvgRo-110">
          <mxGeometry x="53" width="53" height="36" as="geometry" />
        </mxCell>
        <mxCell id="MTes7KhfShOdjZcSvgRo-113" value="" style="shape=partialRectangle;html=1;whiteSpace=wrap;connectable=0;fillColor=none;top=0;left=0;bottom=0;right=0;overflow=hidden;" vertex="1" parent="MTes7KhfShOdjZcSvgRo-110">
          <mxGeometry x="106" width="53" height="36" as="geometry" />
        </mxCell>
        <mxCell id="MTes7KhfShOdjZcSvgRo-114" value="" style="shape=partialRectangle;html=1;whiteSpace=wrap;collapsible=0;dropTarget=0;pointerEvents=0;fillColor=none;top=0;left=0;bottom=0;right=0;points=[[0,0.5],[1,0.5]];portConstraint=eastwest;" vertex="1" parent="MTes7KhfShOdjZcSvgRo-105">
          <mxGeometry y="73" width="159.23" height="37" as="geometry" />
        </mxCell>
        <mxCell id="MTes7KhfShOdjZcSvgRo-115" value="" style="shape=partialRectangle;html=1;whiteSpace=wrap;connectable=0;fillColor=none;top=0;left=0;bottom=0;right=0;overflow=hidden;" vertex="1" parent="MTes7KhfShOdjZcSvgRo-114">
          <mxGeometry width="53" height="37" as="geometry" />
        </mxCell>
        <mxCell id="MTes7KhfShOdjZcSvgRo-116" value="" style="shape=partialRectangle;html=1;whiteSpace=wrap;connectable=0;fillColor=none;top=0;left=0;bottom=0;right=0;overflow=hidden;" vertex="1" parent="MTes7KhfShOdjZcSvgRo-114">
          <mxGeometry x="53" width="53" height="37" as="geometry" />
        </mxCell>
        <mxCell id="MTes7KhfShOdjZcSvgRo-117" value="" style="shape=partialRectangle;html=1;whiteSpace=wrap;connectable=0;fillColor=none;top=0;left=0;bottom=0;right=0;overflow=hidden;" vertex="1" parent="MTes7KhfShOdjZcSvgRo-114">
          <mxGeometry x="106" width="53" height="37" as="geometry" />
        </mxCell>
        <mxCell id="MTes7KhfShOdjZcSvgRo-118" value="" style="endArrow=classic;html=1;rounded=0;fillColor=#e51400;exitX=0.5;exitY=0;exitDx=0;exitDy=0;" edge="1" parent="1" source="MTes7KhfShOdjZcSvgRo-6" target="MTes7KhfShOdjZcSvgRo-114">
          <mxGeometry x="-480" y="-470" width="50" height="50" as="geometry">
            <mxPoint x="368.48056537102457" y="-107.68199999999979" as="sourcePoint" />
            <mxPoint x="421.3557478635753" y="-145.00530616746278" as="targetPoint" />
          </mxGeometry>
        </mxCell>
        <mxCell id="MTes7KhfShOdjZcSvgRo-119" value="" style="shape=table;html=1;whiteSpace=wrap;startSize=0;container=1;collapsible=0;childLayout=tableLayout;columnLines=0;rowLines=0;rounded=1;" vertex="1" parent="1">
          <mxGeometry x="366.64" y="252.8" width="159.23" height="110" as="geometry" />
        </mxCell>
        <mxCell id="MTes7KhfShOdjZcSvgRo-120" value="" style="shape=partialRectangle;html=1;whiteSpace=wrap;collapsible=0;dropTarget=0;pointerEvents=0;fillColor=none;top=0;left=0;bottom=0;right=0;points=[[0,0.5],[1,0.5]];portConstraint=eastwest;" vertex="1" parent="MTes7KhfShOdjZcSvgRo-119">
          <mxGeometry width="159.23" height="37" as="geometry" />
        </mxCell>
        <mxCell id="MTes7KhfShOdjZcSvgRo-121" value="ATS" style="shape=partialRectangle;html=1;whiteSpace=wrap;connectable=0;fillColor=none;top=0;left=0;bottom=0;right=0;overflow=hidden;" vertex="1" parent="MTes7KhfShOdjZcSvgRo-120">
          <mxGeometry width="53" height="37" as="geometry" />
        </mxCell>
        <mxCell id="MTes7KhfShOdjZcSvgRo-122" value="AFC" style="shape=partialRectangle;html=1;whiteSpace=wrap;connectable=0;fillColor=none;top=0;left=0;bottom=0;right=0;overflow=hidden;" vertex="1" parent="MTes7KhfShOdjZcSvgRo-120">
          <mxGeometry x="53" width="53" height="37" as="geometry" />
        </mxCell>
        <mxCell id="MTes7KhfShOdjZcSvgRo-123" value="ISCS" style="shape=partialRectangle;html=1;whiteSpace=wrap;connectable=0;fillColor=none;top=0;left=0;bottom=0;right=0;overflow=hidden;" vertex="1" parent="MTes7KhfShOdjZcSvgRo-120">
          <mxGeometry x="106" width="53" height="37" as="geometry" />
        </mxCell>
        <mxCell id="MTes7KhfShOdjZcSvgRo-124" value="" style="shape=partialRectangle;html=1;whiteSpace=wrap;collapsible=0;dropTarget=0;pointerEvents=0;fillColor=none;top=0;left=0;bottom=0;right=0;points=[[0,0.5],[1,0.5]];portConstraint=eastwest;" vertex="1" parent="MTes7KhfShOdjZcSvgRo-119">
          <mxGeometry y="37" width="159.23" height="36" as="geometry" />
        </mxCell>
        <mxCell id="MTes7KhfShOdjZcSvgRo-125" value="FAS" style="shape=partialRectangle;html=1;whiteSpace=wrap;connectable=0;fillColor=none;top=0;left=0;bottom=0;right=0;overflow=hidden;" vertex="1" parent="MTes7KhfShOdjZcSvgRo-124">
          <mxGeometry width="53" height="36" as="geometry" />
        </mxCell>
        <mxCell id="MTes7KhfShOdjZcSvgRo-126" value="BAS" style="shape=partialRectangle;html=1;whiteSpace=wrap;connectable=0;fillColor=none;top=0;left=0;bottom=0;right=0;overflow=hidden;" vertex="1" parent="MTes7KhfShOdjZcSvgRo-124">
          <mxGeometry x="53" width="53" height="36" as="geometry" />
        </mxCell>
        <mxCell id="MTes7KhfShOdjZcSvgRo-127" value="" style="shape=partialRectangle;html=1;whiteSpace=wrap;connectable=0;fillColor=none;top=0;left=0;bottom=0;right=0;overflow=hidden;" vertex="1" parent="MTes7KhfShOdjZcSvgRo-124">
          <mxGeometry x="106" width="53" height="36" as="geometry" />
        </mxCell>
        <mxCell id="MTes7KhfShOdjZcSvgRo-128" value="" style="shape=partialRectangle;html=1;whiteSpace=wrap;collapsible=0;dropTarget=0;pointerEvents=0;fillColor=none;top=0;left=0;bottom=0;right=0;points=[[0,0.5],[1,0.5]];portConstraint=eastwest;" vertex="1" parent="MTes7KhfShOdjZcSvgRo-119">
          <mxGeometry y="73" width="159.23" height="37" as="geometry" />
        </mxCell>
        <mxCell id="MTes7KhfShOdjZcSvgRo-129" value="" style="shape=partialRectangle;html=1;whiteSpace=wrap;connectable=0;fillColor=none;top=0;left=0;bottom=0;right=0;overflow=hidden;" vertex="1" parent="MTes7KhfShOdjZcSvgRo-128">
          <mxGeometry width="53" height="37" as="geometry" />
        </mxCell>
        <mxCell id="MTes7KhfShOdjZcSvgRo-130" value="" style="shape=partialRectangle;html=1;whiteSpace=wrap;connectable=0;fillColor=none;top=0;left=0;bottom=0;right=0;overflow=hidden;" vertex="1" parent="MTes7KhfShOdjZcSvgRo-128">
          <mxGeometry x="53" width="53" height="37" as="geometry" />
        </mxCell>
        <mxCell id="MTes7KhfShOdjZcSvgRo-131" value="" style="shape=partialRectangle;html=1;whiteSpace=wrap;connectable=0;fillColor=none;top=0;left=0;bottom=0;right=0;overflow=hidden;" vertex="1" parent="MTes7KhfShOdjZcSvgRo-128">
          <mxGeometry x="106" width="53" height="37" as="geometry" />
        </mxCell>
        <mxCell id="MTes7KhfShOdjZcSvgRo-132" value="" style="endArrow=classic;html=1;exitX=0.5;exitY=0;exitDx=0;exitDy=0;" edge="1" parent="1" source="MTes7KhfShOdjZcSvgRo-18" target="MTes7KhfShOdjZcSvgRo-128">
          <mxGeometry width="50" height="50" relative="1" as="geometry">
            <mxPoint x="459.3250176678444" y="380" as="sourcePoint" />
            <mxPoint x="459" y="380" as="targetPoint" />
          </mxGeometry>
        </mxCell>
      </root>
    </mxGraphModel>
  </diagram>
</mxfile>
